<svg xmlns="http://www.w3.org/2000/svg" viewBox="0 0 128 128" role="img" aria-label="Chef hat with spoon">
  <defs>
    <linearGradient id="cap" x1="0" y1="0" x2="1" y2="1">
      <stop offset="0" stop-color="#fff3e5" />
      <stop offset="1" stop-color="#f2d7c2" />
    </linearGradient>
    <linearGradient id="accent" x1="0" y1="0" x2="1" y2="1">
      <stop offset="0" stop-color="#d95f39" />
      <stop offset="1" stop-color="#b6462a" />
    </linearGradient>
  </defs>
  <rect width="128" height="128" rx="28" fill="#f5efe6" />
  <circle cx="64" cy="52" r="30" fill="url(#cap)" stroke="#d9c1ae" stroke-width="3" />
  <circle cx="36" cy="60" r="24" fill="url(#cap)" stroke="#d9c1ae" stroke-width="3" />
  <circle cx="92" cy="60" r="24" fill="url(#cap)" stroke="#d9c1ae" stroke-width="3" />
  <rect x="28" y="62" width="72" height="34" rx="16" fill="url(#cap)" stroke="#d9c1ae" stroke-width="3" />
  <path d="M38 78h52" stroke="#c9a894" stroke-width="4" stroke-linecap="round" />
  <path d="M82 96c0 10-8 18-18 18h-4c-10 0-18-8-18-18" fill="none" stroke="url(#accent)" stroke-width="6" stroke-linecap="round" />
  <path d="M86 80c7 0 12 5 12 12 0 7-5 12-12 12" fill="none" stroke="url(#accent)" stroke-width="6" stroke-linecap="round" />
  <path d="M94 86 114 66" stroke="url(#accent)" stroke-width="6" stroke-linecap="round" />
  <circle cx="114" cy="64" r="6" fill="url(#accent)" />
</svg>
